<svg xmlns="http://www.w3.org/2000/svg" xmlns:xlink="http://www.w3.org/1999/xlink" width="1587" zoomAndPan="magnify" viewBox="0 0 1190.25 1683.749945" height="2245" preserveAspectRatio="xMidYMid meet" version="1.0"><defs><clipPath id="f6bb7c6fcb"><path d="M 0 0.40625 L 1189.5 0.40625 L 1189.5 1683.09375 L 0 1683.09375 Z M 0 0.40625 " clip-rule="nonzero"/></clipPath><clipPath id="812ce22353"><path d="M 0 263 L 1189.5 263 L 1189.5 1518.988281 L 0 1518.988281 Z M 0 263 " clip-rule="nonzero"/></clipPath></defs><g clip-path="url(#f6bb7c6fcb)"><path fill="#ffffff" d="M 0 0.40625 L 1192.25 0.40625 L 1192.25 1694.296875 L 0 1694.296875 Z M 0 0.40625 " fill-opacity="1" fill-rule="nonzero"/><path fill="#ffffff" d="M 0 0.40625 L 1190 0.40625 L 1190 1683.800781 L 0 1683.800781 Z M 0 0.40625 " fill-opacity="1" fill-rule="nonzero"/><path fill="#2b463c" d="M 0 0.40625 L 1190 0.40625 L 1190 1683.800781 L 0 1683.800781 Z M 0 0.40625 " fill-opacity="1" fill-rule="nonzero"/></g><g clip-path="url(#812ce22353)"><path fill="#ffffff" d="M 881.300781 1119.414062 C 866.425781 1130.128906 851.78125 1141.128906 837.703125 1152.042969 C 839.21875 1137.136719 838.800781 1125.257812 838.800781 1125.257812 C 838.800781 1125.257812 857.464844 1124.941406 881.300781 1119.414062 Z M 1070.824219 1027.992188 C 1044.199219 1027.066406 1008.527344 1040.90625 969.949219 1062.222656 C 971.808594 1058.855469 973.492188 1055.34375 974.957031 1051.609375 C 1007.960938 967.503906 1062.339844 807.039062 963.84375 672.273438 C 925.585938 619.921875 838.378906 593.246094 768.28125 580.074219 C 765.3125 563.265625 763.304688 551.847656 763.304688 551.847656 C 763.304688 551.847656 791.609375 538.734375 802.082031 474.265625 C 811.6875 473.027344 824.085938 464.527344 830.914062 441.835938 C 841.964844 405.132812 809.210938 411.058594 809.210938 411.058594 C 808.015625 411.507812 806.898438 411.992188 805.816406 412.523438 C 805.675781 406.128906 805.417969 399.476562 804.988281 392.519531 C 796.65625 256.339844 705.878906 265.597656 692.90625 263.757812 C 679.941406 261.894531 623.441406 274.871094 601.210938 315.621094 C 601.210938 315.621094 591.265625 360.316406 591.5625 412.074219 C 591.164062 411.914062 590.785156 411.734375 590.378906 411.574219 C 590.378906 411.574219 557.621094 405.660156 568.675781 442.363281 C 575.632812 465.492188 588.398438 473.886719 598.074219 474.859375 C 600.066406 483.664062 602.605469 492.234375 605.769531 500.378906 C 620.386719 537.957031 637.332031 555.550781 637.332031 555.550781 C 637.332031 555.550781 636.054688 561.046875 634.242188 570.089844 C 573.761719 575.027344 453.054688 589.761719 419.195312 622.25 C 276.4375 759.21875 363.621094 983.523438 363.621094 983.523438 C 362.226562 1027.992188 417.8125 1026.597656 417.8125 1059.941406 C 417.8125 1081.558594 403.226562 1127.082031 395.230469 1158.722656 C 310.066406 1090.359375 190 1005.039062 123.253906 1007.140625 C 58.3125 1009.191406 -46.605469 1130.464844 22.867188 1220.792969 C 64.375 1274.757812 174.449219 1341.730469 256.335938 1386.914062 C 247.695312 1400.800781 243.382812 1417.449219 245.851562 1435.582031 C 251.40625 1476.34375 276.417969 1493.011719 327.363281 1492.085938 C 378.304688 1491.160156 545.964844 1483.753906 545.964844 1483.753906 C 545.964844 1483.753906 564.703125 1476.007812 592.957031 1464.316406 C 653.777344 1489.449219 704.949219 1510.617188 704.949219 1510.617188 C 704.949219 1510.617188 872.597656 1518.023438 923.554688 1518.949219 C 974.5 1519.886719 999.507812 1503.207031 1005.0625 1462.445312 C 1009.484375 1430.027344 992.210938 1402.304688 967.25 1386.722656 C 1025.820312 1361.046875 1089.550781 1326.117188 1135.417969 1284.25 C 1240.261719 1188.535156 1180.535156 1031.824219 1070.824219 1027.992188 " fill-opacity="1" fill-rule="nonzero"/></g><path fill="#719973" d="M 104.816406 1021.726562 C 102.527344 1022.851562 100.285156 1024.046875 98.175781 1025.441406 C 93.953125 1028.238281 89.992188 1031.40625 86.160156 1034.710938 C 78.484375 1041.332031 71.324219 1048.621094 65.023438 1056.753906 C 58.789062 1064.898438 53.59375 1074.21875 51.113281 1084.546875 C 49.9375 1089.691406 49.332031 1095.058594 49.839844 1100.367188 C 50.21875 1105.605469 51.613281 1111.070312 56.113281 1114.683594 C 57.128906 1109.019531 56.339844 1104.738281 56.230469 1100.078125 C 56.140625 1095.488281 57.058594 1090.917969 58.421875 1086.527344 C 61.058594 1077.65625 66.1875 1069.609375 71.882812 1062.023438 C 77.734375 1054.515625 84.535156 1047.625 91.882812 1041.351562 C 95.546875 1038.207031 99.351562 1035.199219 103.09375 1032.101562 C 104.957031 1030.558594 106.746094 1028.898438 108.550781 1027.214844 C 110.332031 1025.492188 112.472656 1024.417969 112.910156 1020.433594 C 109.128906 1019.03125 107.117188 1020.671875 104.816406 1021.726562 Z M 670.910156 259.945312 C 671.339844 260.222656 671.757812 260.472656 672.15625 260.5625 C 672.953125 260.769531 673.6875 260.550781 674.445312 260.492188 C 675.960938 260.28125 677.460938 260.09375 678.957031 259.792969 C 680.46875 259.585938 681.941406 259.136719 683.394531 258.609375 C 684.132812 258.351562 684.851562 258.042969 685.578125 257.714844 C 686.304688 257.445312 687.039062 257.234375 687.378906 254.207031 C 686.214844 251.390625 685.449219 251.390625 684.671875 251.339844 C 683.882812 251.222656 683.097656 251.132812 682.320312 251.082031 C 680.777344 250.984375 679.234375 250.972656 677.730469 251.183594 C 676.207031 251.320312 674.703125 251.570312 673.203125 251.800781 C 672.453125 251.9375 671.6875 251.9375 670.980469 252.367188 C 670.621094 252.554688 670.292969 252.914062 669.964844 253.304688 C 669.804688 253.5625 669.628906 253.652344 669.488281 254.03125 C 669.359375 254.476562 669.289062 255.304688 669.308594 256.789062 C 669.707031 258.210938 670.003906 258.988281 670.253906 259.375 C 670.492188 259.703125 670.691406 259.746094 670.910156 259.945312 Z M 609.003906 305.375 C 609.972656 304.121094 610.886719 302.867188 611.742188 301.582031 C 613.375 298.984375 614.917969 296.347656 616.601562 293.808594 C 619.96875 288.71875 623.871094 284.050781 628.191406 279.878906 C 632.53125 275.707031 637.410156 272.261719 642.667969 269.453125 L 646.6875 267.460938 C 648.082031 266.921875 649.515625 266.476562 650.929688 265.976562 L 653.082031 265.242188 C 653.816406 265.082031 654.554688 264.882812 655.269531 264.5625 C 656.703125 263.886719 658.136719 263.039062 659.621094 261.308594 C 656.246094 258.917969 652.621094 258.820312 649.386719 259.765625 C 647.722656 260.125 646.042969 260.441406 644.378906 260.859375 L 639.53125 262.550781 C 633.238281 265.210938 627.195312 268.785156 622.277344 273.496094 C 617.25 278.105469 612.949219 283.371094 609.265625 288.976562 C 607.421875 291.785156 605.691406 294.671875 604.394531 297.769531 C 603.730469 299.304688 603.289062 300.957031 602.902344 302.609375 C 602.652344 304.292969 601.699219 305.796875 604.117188 308.421875 C 607.632812 308.046875 607.941406 306.613281 609.003906 305.375 Z M 909.65625 743.632812 L 909.65625 1116.417969 C 909.65625 1135.117188 894.503906 1150.269531 875.816406 1150.269531 L 290.476562 1150.269531 C 271.789062 1150.269531 256.632812 1135.117188 256.632812 1116.417969 L 256.632812 743.632812 C 256.632812 724.945312 271.789062 709.792969 290.476562 709.792969 L 875.816406 709.792969 C 894.503906 709.792969 909.65625 724.945312 909.65625 743.632812 " fill-opacity="1" fill-rule="nonzero"/><path fill="#1c2120" d="M 590.378906 411.574219 C 592.5 412.382812 594.429688 413.296875 596.222656 414.324219 C 609.234375 399.65625 601.148438 328.996094 634.003906 328.027344 C 670.445312 326.953125 702.589844 367.675781 731.523438 344.097656 C 760.457031 320.519531 783.882812 321.625 789.238281 361.285156 C 792.644531 386.476562 794.335938 408.179688 799.222656 416.554688 C 802.023438 414.382812 805.316406 412.511719 809.210938 411.058594 C 809.210938 411.058594 811.738281 410.601562 815.152344 410.730469 C 828.355469 382.730469 828.445312 278.960938 750.816406 254.070312 C 645.605469 220.355469 587.917969 284.078125 582.5625 318.378906 C 582.5625 318.378906 574.058594 390.269531 583.976562 411.277344 C 587.621094 411.089844 590.378906 411.574219 590.378906 411.574219 Z M 614.699219 881.644531 C 610.71875 879.175781 606.070312 877.683594 601.03125 877.683594 L 574.199219 877.683594 C 559.8125 877.683594 548.15625 889.34375 548.15625 903.730469 L 548.15625 930.5625 C 548.15625 944.949219 559.8125 956.609375 574.199219 956.609375 L 601.03125 956.609375 C 615.417969 956.609375 627.074219 944.949219 627.074219 930.5625 L 627.074219 922.777344 C 624.914062 923.503906 622.644531 923.980469 620.234375 923.980469 C 608.328125 923.980469 598.660156 914.324219 598.660156 902.414062 C 598.660156 892.429688 605.492188 884.105469 614.699219 881.644531 Z M 303.648438 727.367188 L 868.230469 728.867188 C 880.078125 728.898438 889.871094 738.558594 890.070312 750.40625 L 895.957031 1097.191406 C 895.996094 1099.589844 897.945312 1101.5 900.335938 1101.5 C 900.367188 1101.5 900.386719 1101.5 900.417969 1101.5 C 902.835938 1101.453125 904.765625 1099.460938 904.726562 1097.039062 L 898.84375 750.257812 C 898.566406 733.667969 884.84375 720.136719 868.25 720.085938 L 303.667969 718.582031 C 303.667969 718.582031 303.667969 718.582031 303.65625 718.582031 C 301.238281 718.582031 299.277344 720.542969 299.277344 722.953125 C 299.265625 725.382812 301.21875 727.355469 303.648438 727.367188 Z M 665.921875 435.96875 C 671.769531 435.441406 676.070312 430.285156 675.542969 424.441406 C 675.011719 418.59375 669.847656 414.285156 664.011719 414.820312 C 658.167969 415.347656 653.855469 420.507812 654.386719 426.351562 C 654.914062 432.195312 660.078125 436.496094 665.921875 435.96875 Z M 744.027344 411.445312 C 738.183594 411.972656 733.875 417.140625 734.402344 422.988281 C 734.929688 428.820312 740.09375 433.132812 745.941406 432.605469 C 751.785156 432.078125 756.085938 426.910156 755.558594 421.066406 C 755.03125 415.230469 749.871094 410.917969 744.027344 411.445312 Z M 686.375 511.113281 C 683.65625 510.246094 680.816406 509.53125 678.230469 508.285156 C 676.925781 507.679688 675.472656 507.289062 674.246094 506.492188 L 672.277344 505.46875 C 671.636719 505.089844 670.8125 504.96875 668.988281 505.847656 C 668.402344 507.667969 668.820312 508.496094 669.417969 509.054688 L 671.160156 510.863281 C 672.296875 512.148438 673.710938 513.046875 675.113281 513.972656 C 677.832031 516.042969 681.015625 517.167969 684.113281 518.492188 C 690.445312 520.691406 697.097656 521.925781 703.667969 521.757812 C 710.257812 521.6875 716.640625 520.304688 722.851562 518.761719 C 725.976562 518.042969 729.074219 517.285156 732.128906 516.351562 C 733.652344 515.894531 735.15625 515.324219 736.621094 514.699219 L 738.792969 513.644531 C 739.519531 513.273438 740.15625 512.628906 740.335938 510.855469 C 739.050781 509.640625 738.214844 509.480469 737.457031 509.621094 L 735.175781 509.988281 C 733.652344 510.207031 732.179688 510.597656 730.675781 510.875 C 727.710938 511.523438 724.722656 512.167969 721.707031 512.519531 C 715.664062 513.144531 709.609375 513.265625 703.726562 513.003906 C 697.851562 512.648438 692.019531 512.457031 686.375 511.113281 Z M 708.566406 488.671875 C 709.472656 488.800781 710.386719 488.910156 711.28125 488.839844 C 713.09375 488.742188 714.90625 488.421875 716.757812 488.042969 C 720.414062 487.375 724.484375 485.875 727.421875 482.667969 C 730.4375 479.53125 731.671875 475.089844 731.683594 471.257812 C 731.820312 469.304688 731.511719 467.453125 731.246094 465.613281 C 730.996094 464.726562 730.648438 463.867188 730.308594 463.023438 L 729.75 461.769531 C 729.621094 461.351562 729.125 460.980469 727.3125 460.910156 C 725.621094 461.667969 725.242188 462.117188 725.222656 462.523438 L 725.003906 463.730469 C 724.882812 464.527344 724.792969 465.300781 724.734375 466.058594 C 724.335938 467.511719 724.433594 469.015625 724.007812 470.320312 C 723.449219 473.097656 721.996094 475.03125 720.792969 476.960938 C 719.445312 478.824219 717.527344 480.707031 714.878906 481.96875 C 713.554688 482.546875 712.121094 482.9375 710.636719 483.183594 C 709.898438 483.34375 709.164062 483.511719 708.40625 483.742188 L 707.269531 484.101562 C 706.890625 484.199219 706.523438 484.628906 706.007812 486.171875 C 706.316406 487.785156 706.773438 488.214844 707.222656 488.332031 Z M 757.828125 391.722656 L 758.671875 391.75 C 758.960938 391.761719 759.359375 391.484375 760.375 390.25 C 760.894531 388.726562 760.792969 388.1875 760.574219 387.957031 C 760.347656 387.730469 760.128906 387.460938 759.886719 387.25 C 759.421875 386.824219 758.914062 386.453125 758.363281 386.175781 C 757.257812 385.628906 756.113281 385.179688 754.988281 384.664062 C 752.757812 383.558594 750.359375 382.492188 747.78125 382.113281 C 745.203125 381.605469 742.523438 382.214844 740.027344 382.960938 C 738.761719 383.347656 737.527344 383.757812 736.402344 384.464844 C 735.816406 384.761719 735.296875 385.199219 734.808594 385.660156 L 734.09375 386.367188 C 733.832031 386.554688 733.714844 387.082031 734.222656 388.804688 C 735.257812 390.296875 735.664062 390.605469 735.925781 390.578125 L 736.78125 390.636719 L 738.375 390.6875 C 739.398438 390.6875 740.355469 390.546875 741.332031 390.578125 C 743.292969 390.566406 745.164062 390.933594 747.09375 390.835938 C 749.027344 390.835938 751.097656 390.597656 753.207031 390.757812 C 754.234375 390.894531 755.25 391.164062 756.246094 391.464844 C 756.742188 391.601562 757.28125 391.671875 757.828125 391.722656 Z M 678.726562 390.847656 L 677.375 390.230469 C 676.46875 389.871094 675.550781 389.53125 674.617188 389.292969 C 672.742188 388.773438 670.820312 388.574219 668.902344 388.375 C 665.046875 388.039062 661.046875 387.929688 657.203125 389.003906 C 653.339844 389.910156 649.734375 391.902344 646.449219 394.042969 C 644.777344 395.085938 643.144531 396.164062 641.632812 397.425781 C 640.855469 398.015625 640.1875 398.742188 639.601562 399.546875 L 638.753906 400.773438 C 638.476562 401.179688 638.40625 401.816406 639.191406 403.230469 C 640.65625 404.039062 641.253906 404.070312 641.652344 403.871094 L 642.816406 403.28125 C 643.542969 402.832031 644.269531 402.425781 645.007812 402.027344 L 647.105469 400.703125 L 649.378906 399.6875 C 652.53125 398.59375 655.757812 398.015625 659.003906 397.558594 C 662.230469 397.1875 665.457031 396.390625 668.839844 396.101562 L 673.9375 395.785156 L 676.546875 395.515625 L 677.878906 395.367188 C 678.308594 395.367188 678.785156 395.019531 679.625 393.375 C 679.59375 391.542969 679.175781 391.003906 678.726562 390.847656 Z M 291.988281 1179.203125 L 800.90625 1179.203125 L 796.496094 1182.300781 L 791.835938 1185.128906 C 785.285156 1188.632812 778.296875 1191.75 771.167969 1194.605469 C 764.058594 1197.464844 756.949219 1200.441406 749.742188 1203.179688 C 735.4375 1208.945312 720.980469 1214.472656 706.484375 1219.925781 C 699.207031 1222.585938 691.878906 1225.066406 684.550781 1227.585938 C 680.898438 1228.859375 677.234375 1230.125 673.628906 1231.535156 L 668.183594 1233.589844 C 666.363281 1234.273438 664.648438 1235.25 663.265625 1237.34375 C 665.59375 1238.296875 667.566406 1238.109375 669.449219 1237.621094 L 675.09375 1236.15625 C 678.867188 1235.203125 682.589844 1234.097656 686.304688 1232.972656 L 708.523438 1225.941406 C 723.398438 1221.429688 738.195312 1216.640625 752.859375 1211.355469 C 767.472656 1205.839844 781.878906 1199.964844 795.769531 1191.78125 L 800.90625 1188.335938 L 805.535156 1184.789062 C 807.914062 1182.976562 810.234375 1181.097656 812.554688 1179.203125 L 880.085938 1179.203125 C 889.433594 1179.203125 897.011719 1171.628906 897.011719 1162.289062 L 897.011719 1158.234375 C 897.011719 1153.515625 895.070312 1149.246094 891.953125 1146.175781 C 887.15625 1148.785156 881.660156 1150.269531 875.816406 1150.269531 L 290.476562 1150.269531 C 286.253906 1150.269531 282.230469 1149.453125 278.507812 1148.050781 C 276.355469 1150.886719 275.074219 1154.410156 275.074219 1158.234375 L 275.074219 1162.289062 C 275.074219 1171.628906 282.640625 1179.203125 291.988281 1179.203125 Z M 434.070312 641.179688 C 434.476562 642.601562 434.964844 643.988281 435.464844 645.359375 C 436.46875 648.121094 437.515625 650.855469 438.398438 653.65625 C 440.09375 659.289062 441.445312 665.007812 443.050781 670.621094 C 444.5625 676.265625 446.625 681.734375 448.316406 687.328125 C 449.203125 690.117188 449.960938 692.945312 450.894531 695.734375 L 452.328125 699.914062 L 453.117188 702.003906 C 453.335938 702.710938 453.863281 703.347656 455.785156 703.769531 C 457.425781 702.730469 457.683594 701.914062 457.625 701.167969 L 457.574219 698.890625 C 457.527344 697.375 457.464844 695.851562 457.238281 694.367188 C 456.9375 691.371094 456.390625 688.40625 455.8125 685.457031 C 454.660156 679.5625 453.464844 673.628906 451.382812 667.984375 C 449.429688 662.289062 446.882812 656.820312 444.335938 651.386719 L 440.691406 643.171875 C 440.023438 641.828125 439.367188 640.480469 438.570312 639.199219 L 437.34375 637.285156 C 436.925781 636.648438 436.238281 636.132812 434.476562 636.140625 C 433.351562 637.503906 433.292969 638.320312 433.480469 639.039062 Z M 949.5 1055.871094 C 948.710938 1054.117188 947.746094 1052.472656 946.660156 1050.890625 C 944.582031 1047.683594 942.210938 1044.558594 939.144531 1042.230469 C 936.167969 1039.789062 932.714844 1038.027344 929.277344 1036.445312 C 927.585938 1035.609375 925.914062 1034.761719 924.179688 1034.003906 C 923.304688 1033.664062 922.398438 1033.378906 921.453125 1033.179688 C 920.996094 1033.089844 920.496094 1033.027344 920.019531 1032.957031 C 919.550781 1032.898438 918.914062 1033.117188 917.988281 1034.472656 C 917.910156 1036.117188 918.128906 1036.644531 918.476562 1036.910156 L 919.523438 1037.71875 C 920.230469 1038.207031 920.933594 1038.714844 921.671875 1039.121094 C 923.144531 1039.96875 924.609375 1040.84375 925.972656 1041.871094 C 928.660156 1044 931.011719 1046.46875 933.371094 1048.800781 C 935.660156 1051.199219 938.308594 1053.222656 940.597656 1055.679688 C 941.8125 1056.855469 942.808594 1058.191406 944.023438 1059.414062 L 945.84375 1061.285156 L 946.8125 1062.210938 C 947.089844 1062.550781 947.675781 1062.699219 949.488281 1062.261719 C 950.84375 1061.046875 950.992188 1060.429688 950.832031 1059.992188 L 950.464844 1058.585938 C 950.195312 1057.660156 949.925781 1056.714844 949.5 1055.871094 Z M 984.285156 1434.328125 C 982.832031 1421.234375 977.804688 1408.109375 969.050781 1397.964844 C 967.023438 1395.316406 964.53125 1393.085938 962.191406 1390.757812 C 959.644531 1388.65625 957.117188 1386.515625 954.308594 1384.8125 C 951.640625 1382.890625 948.671875 1381.507812 945.765625 1380.0625 C 944.34375 1379.296875 942.808594 1378.75 941.316406 1378.140625 C 939.832031 1377.511719 938.1875 1377.175781 936.058594 1378.152344 C 936.746094 1380.492188 937.929688 1381.515625 939.285156 1382.253906 C 940.609375 1383.03125 941.960938 1383.746094 943.1875 1384.671875 C 945.707031 1386.40625 948.183594 1388.136719 950.503906 1390.070312 C 955.222656 1393.792969 959.503906 1397.996094 963 1402.753906 C 970.21875 1412.171875 973.910156 1423.664062 975.605469 1435.390625 C 977.195312 1447.210938 976.648438 1459.519531 974.46875 1471.625 C 973.3125 1477.667969 971.652344 1483.621094 969.75 1489.507812 C 968.832031 1492.453125 967.796875 1495.363281 966.824219 1498.308594 L 965.308594 1502.710938 C 964.78125 1504.171875 964.523438 1505.726562 965.230469 1507.839844 C 967.378906 1507.152344 968.414062 1505.847656 969.183594 1504.441406 C 969.9375 1503.027344 970.675781 1501.613281 971.382812 1500.179688 C 972.765625 1497.304688 974 1494.355469 975.105469 1491.359375 C 977.316406 1485.367188 979.117188 1479.210938 980.671875 1472.988281 C 983.808594 1460.574219 985.707031 1447.519531 984.285156 1434.328125 Z M 429.082031 1414.15625 L 428.535156 1411.328125 C 428.324219 1410.390625 427.847656 1409.453125 426.144531 1408.71875 C 424.679688 1409.832031 424.34375 1410.757812 424.3125 1411.683594 L 424.164062 1414.441406 C 424.035156 1416.285156 424.074219 1418.105469 423.972656 1419.949219 C 423.894531 1423.59375 423.765625 1427.257812 423.289062 1430.863281 C 422.300781 1438.082031 420.578125 1445.140625 418.199219 1451.75 C 415.742188 1458.3125 413.121094 1464.746094 408.941406 1470.210938 C 406.640625 1472.699219 404.441406 1475.378906 401.632812 1477.371094 C 400.289062 1478.457031 399.015625 1479.691406 397.433594 1480.476562 L 395.179688 1481.890625 C 394.394531 1482.328125 393.757812 1483.046875 393.488281 1485.144531 C 394.933594 1486.46875 396.007812 1486.441406 396.933594 1486.121094 L 399.800781 1485.277344 C 401.78125 1484.796875 403.523438 1483.800781 405.257812 1482.757812 C 408.949219 1480.964844 411.808594 1478.015625 414.792969 1475.257812 C 420.261719 1469.226562 424.304688 1462.027344 426.523438 1454.429688 C 428.871094 1446.84375 429.460938 1439.007812 429.628906 1431.339844 C 429.757812 1427.507812 429.820312 1423.683594 429.640625 1419.859375 C 429.570312 1417.957031 429.359375 1416.046875 429.082031 1414.15625 Z M 953.761719 1379.964844 C 956.191406 1380.691406 958.726562 1381.117188 961.753906 1380.230469 C 959.933594 1377.710938 957.601562 1376.496094 955.175781 1375.601562 C 952.773438 1374.625 950.296875 1373.839844 947.847656 1372.984375 C 942.957031 1371.242188 937.949219 1369.746094 932.863281 1368.550781 C 922.707031 1366.0625 912.144531 1364.75 901.542969 1364.859375 C 890.929688 1364.9375 880.363281 1366.542969 870.171875 1369.039062 C 859.945312 1371.488281 850.179688 1375.042969 840.480469 1378.519531 C 831.171875 1382.035156 821.375 1384.492188 811.449219 1386.703125 C 801.554688 1388.972656 791.507812 1390.835938 781.421875 1392.527344 C 771.328125 1394.113281 761.183594 1395.445312 751.027344 1396.710938 C 745.949219 1397.355469 740.871094 1397.964844 735.792969 1398.703125 L 728.179688 1399.71875 C 725.640625 1400.066406 723.128906 1400.671875 720.703125 1402.464844 C 723.378906 1403.871094 725.976562 1404.027344 728.558594 1403.929688 L 736.261719 1403.519531 C 741.398438 1403.28125 746.527344 1402.832031 751.644531 1402.347656 C 761.898438 1401.378906 772.113281 1400.175781 782.328125 1398.8125 C 802.777344 1396.253906 823.289062 1393.394531 843.429688 1386.742188 C 845.648438 1385.96875 847.859375 1385.199219 850.078125 1384.433594 C 849.960938 1384.652344 849.832031 1384.863281 849.71875 1385.089844 L 847.828125 1389.292969 C 846.644531 1392.128906 845.597656 1395.015625 844.664062 1397.945312 C 842.800781 1403.789062 841.269531 1409.742188 839.902344 1415.746094 C 837.136719 1427.726562 835.203125 1440.132812 835.78125 1452.707031 C 836.21875 1465.261719 839.476562 1477.949219 845.628906 1489.179688 C 848.753906 1494.746094 852.617188 1499.921875 857.15625 1504.371094 C 859.457031 1506.574219 861.898438 1508.605469 864.523438 1510.347656 C 865.789062 1511.28125 867.074219 1512.167969 868.457031 1512.914062 C 869.78125 1513.730469 871.324219 1514.300781 873.535156 1513.621094 C 873.246094 1511.234375 872.289062 1510.089844 871.125 1509.191406 C 869.949219 1508.304688 868.886719 1507.300781 867.851562 1506.253906 C 865.679688 1504.292969 863.828125 1502.054688 861.886719 1499.933594 C 858.253906 1495.460938 854.996094 1490.742188 852.46875 1485.605469 C 847.578125 1475.238281 845.28125 1463.820312 844.511719 1452.230469 C 843.667969 1440.621094 844.292969 1428.742188 846.136719 1416.980469 C 847.121094 1411.117188 848.527344 1405.304688 850.089844 1399.558594 L 852.476562 1390.914062 L 853.683594 1386.59375 C 853.992188 1385.539062 854.152344 1384.445312 853.871094 1383.148438 C 869.640625 1377.800781 885.441406 1373.203125 901.730469 1372.585938 C 911.648438 1372.148438 921.621094 1373.140625 931.527344 1374.90625 C 936.476562 1375.859375 941.453125 1376.777344 946.371094 1378.042969 C 948.832031 1378.667969 951.320312 1379.207031 953.761719 1379.964844 Z M 575.453125 1458.214844 C 573.59375 1457.765625 571.742188 1457.335938 569.886719 1456.679688 C 566.203125 1455.425781 562.511719 1454.378906 558.835938 1453.054688 C 551.488281 1450.515625 544.164062 1447.878906 536.863281 1445.121094 C 522.320312 1439.453125 507.921875 1433.351562 493.398438 1427.515625 L 449.808594 1409.875 C 442.59375 1406.816406 435.445312 1403.601562 428.265625 1400.425781 C 424.679688 1398.839844 421.085938 1397.269531 417.433594 1395.824219 L 411.988281 1393.59375 C 410.175781 1392.847656 408.222656 1392.390625 405.765625 1392.964844 C 406.851562 1395.257812 408.441406 1396.472656 410.175781 1397.417969 L 415.371094 1400.203125 C 418.828125 1402.105469 422.363281 1403.828125 425.886719 1405.570312 L 447.203125 1415.679688 C 461.339844 1422.578125 475.617188 1429.230469 490.023438 1435.589844 C 504.496094 1441.816406 519.292969 1447.320312 534.257812 1452.386719 C 541.761719 1454.859375 549.289062 1457.328125 556.996094 1459.269531 C 560.777344 1460.414062 564.792969 1460.980469 568.664062 1461.816406 C 570.59375 1462.253906 572.617188 1462.484375 574.617188 1462.722656 C 576.597656 1463.003906 578.667969 1462.960938 580.832031 1461.519531 C 579.128906 1459.378906 577.335938 1458.632812 575.453125 1458.214844 Z M 723.867188 1305.605469 C 729.980469 1319.097656 736.519531 1332.410156 743.808594 1345.371094 C 747.402344 1351.875 751.078125 1358.355469 755.167969 1364.628906 C 757.320312 1367.714844 759.460938 1370.8125 762.039062 1373.640625 C 763.195312 1375.113281 764.695312 1376.410156 766.019531 1377.78125 C 767.324219 1379.15625 769.367188 1380.0625 771.644531 1380.003906 C 771.207031 1377.453125 770.144531 1376.289062 769.058594 1374.835938 C 767.980469 1373.421875 766.789062 1372.167969 765.832031 1370.625 C 763.800781 1367.6875 761.878906 1364.628906 759.9375 1361.582031 C 756.195312 1355.378906 752.671875 1348.996094 749.445312 1342.4375 C 743.171875 1329.222656 737.425781 1315.730469 731.890625 1302.152344 L 723.398438 1281.859375 L 722.324219 1279.320312 C 722.054688 1278.621094 721.796875 1277.984375 721.628906 1277.289062 C 721.257812 1275.914062 721.089844 1274.472656 721.140625 1273.035156 C 721.230469 1270.167969 722.183594 1267.300781 723.898438 1264.921875 C 724.8125 1263.675781 725.660156 1262.839844 727.101562 1261.644531 L 731.335938 1258.101562 C 734.183594 1255.761719 736.941406 1253.3125 739.738281 1250.902344 C 742.542969 1248.523438 745.253906 1246.003906 747.992188 1243.535156 L 752.082031 1239.8125 C 753.476562 1238.597656 754.660156 1237.132812 754.96875 1234.5625 C 752.402344 1234.304688 750.707031 1235.140625 749.226562 1236.226562 L 744.695312 1239.402344 C 741.667969 1241.535156 738.621094 1243.625 735.683594 1245.84375 C 732.726562 1248.035156 729.730469 1250.195312 726.824219 1252.457031 L 722.433594 1255.8125 C 720.980469 1256.886719 719.070312 1258.53125 717.765625 1260.234375 C 714.996094 1263.726562 713.285156 1268.070312 712.945312 1272.550781 C 712.816406 1274.230469 712.9375 1275.933594 713.183594 1277.617188 C 712.089844 1278.492188 711.035156 1279.398438 709.910156 1280.246094 C 707.609375 1281.917969 705.289062 1283.5625 703.078125 1285.332031 C 698.429688 1288.628906 693.917969 1292.085938 689.21875 1295.332031 L 660.875 1314.617188 L 632.660156 1334.320312 C 627.890625 1337.515625 623.042969 1340.574219 618.214844 1343.679688 C 615.804688 1345.242188 613.394531 1346.796875 611.046875 1348.460938 L 607.53125 1350.96875 C 606.417969 1351.765625 605.453125 1352.820312 604.984375 1354.742188 C 598.132812 1351.039062 591.292969 1347.316406 584.484375 1343.539062 C 565.6875 1333.324219 547.097656 1322.679688 528.890625 1311.402344 C 524.390625 1308.492188 519.820312 1305.695312 515.371094 1302.71875 L 502.039062 1293.757812 L 488.738281 1284.746094 L 482.066406 1280.246094 C 480.664062 1279.308594 479.171875 1278.484375 477.488281 1277.90625 C 478.253906 1276.621094 479.019531 1275.328125 479.726562 1273.785156 L 480.613281 1271.84375 L 481.050781 1270.867188 C 481.179688 1270.457031 481.269531 1269.878906 481.351562 1269.382812 C 481.648438 1267.28125 481.050781 1265.558594 480.472656 1264.074219 C 479.171875 1261.1875 477.378906 1259.148438 475.585938 1257.1875 C 473.773438 1255.234375 471.851562 1253.523438 469.902344 1251.867188 C 462.035156 1245.347656 453.621094 1239.941406 445.050781 1234.832031 C 440.78125 1232.273438 436.359375 1229.964844 431.96875 1227.625 C 427.519531 1225.421875 423.367188 1222.585938 417.8125 1222.515625 C 421.015625 1227.035156 425.558594 1228.949219 429.707031 1231.617188 L 442.214844 1239.472656 C 450.46875 1244.757812 458.660156 1250.234375 465.949219 1256.488281 C 469.453125 1259.574219 473.097656 1263.121094 474.648438 1266.566406 C 474.9375 1267.371094 475.097656 1268.109375 474.96875 1268.476562 C 474.917969 1268.585938 474.96875 1268.625 474.910156 1268.804688 L 474.53125 1269.503906 L 473.804688 1270.90625 C 472.878906 1272.777344 471.335938 1274.917969 470.128906 1276.921875 C 464.714844 1285.035156 458.871094 1293 453.054688 1300.964844 L 417.640625 1348.5 L 384.21875 1393.851562 C 380.425781 1392.058594 376.625 1390.140625 372.878906 1388.195312 C 368.230469 1385.757812 363.621094 1383.230469 359.140625 1380.511719 C 354.640625 1377.820312 350.179688 1375.074219 345.949219 1372.015625 C 342.523438 1369.738281 339.828125 1366.878906 336.101562 1364.847656 L 335.84375 1364.46875 L 334.3125 1362.398438 C 333.703125 1361.800781 333.035156 1361.242188 332.390625 1360.675781 C 331.054688 1359.601562 329.839844 1358.277344 328.335938 1357.402344 L 323.71875 1354.882812 C 317.296875 1352.054688 310.109375 1350.78125 303.277344 1351.597656 C 296.410156 1352.28125 290.085938 1354.773438 284.132812 1357.5 C 281.136719 1358.824219 278.179688 1360.230469 275.34375 1361.832031 C 273.917969 1362.609375 272.554688 1363.523438 271.230469 1364.480469 L 269.320312 1366.023438 C 268.703125 1366.5625 268.203125 1367.347656 268.441406 1369.121094 C 269.984375 1369.984375 270.851562 1369.945312 271.558594 1369.628906 L 273.710938 1368.742188 C 275.164062 1368.175781 276.515625 1367.46875 277.929688 1366.859375 C 280.71875 1365.585938 283.527344 1364.332031 286.433594 1363.425781 C 292.277344 1361.664062 298.242188 1360.578125 304.015625 1360.308594 C 307.179688 1360.21875 310.316406 1360.230469 313.382812 1360.546875 C 313.285156 1360.578125 313.175781 1360.597656 313.074219 1360.625 L 308.664062 1361.949219 C 307.210938 1362.480469 305.828125 1363.144531 304.402344 1363.761719 C 298.796875 1366.351562 293.460938 1369.796875 288.953125 1374.1875 C 284.390625 1378.519531 280.5 1383.539062 277.382812 1388.992188 C 274.238281 1394.441406 272.246094 1400.402344 270.664062 1406.359375 C 267.664062 1418.367188 267.597656 1430.671875 268.542969 1442.601562 C 268.988281 1448.585938 269.648438 1454.539062 270.664062 1460.421875 C 271.179688 1463.371094 271.796875 1466.289062 272.585938 1469.175781 L 273.867188 1473.476562 C 274.328125 1474.890625 275.074219 1476.273438 277.015625 1477.269531 C 278.148438 1475.429688 278.21875 1473.953125 277.988281 1472.511719 L 277.402344 1468.191406 L 276.257812 1459.578125 C 275.519531 1453.832031 274.972656 1448.078125 274.894531 1442.3125 C 274.8125 1430.792969 276.109375 1419.320312 279.125 1408.570312 C 282.050781 1397.824219 286.832031 1387.648438 294.398438 1379.675781 C 298.089844 1375.601562 302.640625 1372.414062 307.390625 1369.507812 L 311.042969 1367.425781 L 314.867188 1365.59375 C 316.132812 1364.929688 317.464844 1364.421875 318.808594 1363.941406 C 319.714844 1363.644531 320.550781 1363.144531 321.320312 1362.257812 L 324.722656 1363.664062 C 325.996094 1364.28125 327.171875 1365.117188 328.4375 1365.8125 C 329.0625 1366.171875 329.671875 1366.5625 330.339844 1366.898438 L 332.070312 1368.273438 L 333.882812 1369.628906 C 334.359375 1370.027344 335.019531 1370.246094 336.292969 1370.015625 C 338.285156 1372.214844 340.691406 1374.046875 342.84375 1376.019531 C 347.003906 1379.503906 351.367188 1382.691406 355.804688 1385.769531 C 364.804688 1391.75 374.054688 1397.117188 383.832031 1401.898438 C 385.324219 1402.632812 387.1875 1402.246094 388.253906 1400.882812 L 388.332031 1400.78125 C 400.566406 1385.199219 412.722656 1369.566406 424.730469 1353.796875 C 436.628906 1337.957031 448.226562 1321.886719 459.496094 1305.546875 C 465.140625 1297.382812 470.648438 1289.117188 475.933594 1280.585938 C 476.003906 1280.453125 476.0625 1280.34375 476.132812 1280.234375 C 477.148438 1281.539062 478.304688 1282.636719 479.546875 1283.632812 L 485.890625 1288.660156 C 490.070312 1292.0625 494.371094 1295.320312 498.792969 1298.398438 C 507.554688 1304.667969 516.40625 1310.832031 525.433594 1316.726562 C 534.285156 1322.902344 543.425781 1328.617188 552.464844 1334.511719 C 561.683594 1340.105469 570.824219 1345.851562 580.214844 1351.167969 C 598.910156 1361.949219 618.234375 1371.589844 637.808594 1380.660156 C 647.585938 1385.210938 657.429688 1389.621094 667.40625 1393.714844 C 672.40625 1395.765625 677.433594 1397.707031 682.5 1399.558594 L 690.117188 1402.324219 C 692.636719 1403.273438 695.3125 1403.890625 698.46875 1403.164062 C 696.609375 1400.515625 694.277344 1399.160156 691.828125 1398.074219 L 684.542969 1394.6875 L 670.035156 1387.789062 C 660.398438 1383.109375 650.722656 1378.527344 641.164062 1373.710938 C 629.265625 1367.714844 617.488281 1361.503906 605.78125 1355.171875 C 607.371094 1355.46875 608.605469 1355.152344 609.710938 1354.613281 L 613.585938 1352.679688 C 616.164062 1351.355469 618.671875 1349.941406 621.171875 1348.507812 L 636.046875 1339.699219 C 646.042969 1333.941406 656.046875 1328.175781 665.746094 1321.886719 C 675.460938 1315.640625 684.742188 1308.710938 693.839844 1301.511719 C 698.398438 1297.949219 702.878906 1294.226562 707.199219 1290.332031 C 709.351562 1288.351562 711.382812 1286.230469 713.445312 1284.167969 C 713.820312 1283.769531 714.191406 1283.34375 714.558594 1282.933594 L 715.375 1285.085938 C 717.964844 1292.023438 720.929688 1298.804688 723.867188 1305.605469 Z M 561.417969 1279.636719 C 558.339844 1277.207031 555.164062 1274.929688 551.988281 1272.648438 L 532.84375 1259.046875 C 520.238281 1249.746094 507.585938 1240.539062 494.851562 1231.425781 C 482.066406 1222.398438 468.976562 1213.804688 455.882812 1205.210938 C 449.351562 1200.921875 442.839844 1196.570312 436.199219 1192.40625 C 432.925781 1190.265625 429.539062 1188.285156 426.195312 1186.253906 L 421.15625 1183.207031 C 419.503906 1182.160156 417.664062 1181.382812 415.035156 1181.761719 C 415.609375 1184.363281 416.996094 1185.804688 418.558594 1186.980469 L 423.199219 1190.59375 C 426.292969 1192.996094 429.359375 1195.445312 432.527344 1197.753906 C 438.777344 1202.464844 445.160156 1206.992188 451.511719 1211.574219 C 464.207031 1220.734375 476.890625 1229.914062 489.894531 1238.625 C 502.945312 1247.269531 516.066406 1255.820312 529.238281 1264.273438 L 548.773438 1277.308594 C 552.039062 1279.460938 555.3125 1281.609375 558.679688 1283.632812 L 563.675781 1286.707031 C 565.359375 1287.722656 567.199219 1288.488281 569.71875 1288.289062 C 569.011719 1285.871094 567.628906 1284.417969 566.074219 1283.222656 Z M 915.210938 829.28125 C 917.101562 828.277344 917.570312 827.300781 917.730469 826.285156 L 918.335938 823.277344 C 918.726562 821.277344 919.402344 819.304688 919.808594 817.324219 C 920.207031 815.332031 920.933594 813.390625 921.464844 811.410156 C 922.019531 809.449219 922.546875 807.476562 923.273438 805.546875 C 925.792969 797.730469 929.308594 790.222656 932.316406 782.515625 C 935.441406 774.839844 938.605469 767.113281 942.152344 759.546875 C 943.953125 755.773438 945.953125 752.097656 947.945312 748.425781 C 948.902344 746.5625 949.917969 744.738281 950.804688 742.828125 L 952.148438 739.980469 C 952.605469 739.035156 952.804688 737.929688 952.027344 736.1875 C 950.117188 736.21875 949.210938 736.914062 948.542969 737.75 L 946.59375 740.277344 C 945.335938 742 944.152344 743.773438 943.039062 745.578125 C 940.796875 749.191406 938.695312 752.875 936.546875 756.546875 C 932.175781 763.835938 927.824219 771.214844 924.289062 779.019531 C 920.675781 786.789062 917.929688 794.972656 915.859375 803.386719 C 915.261719 805.445312 914.863281 807.597656 914.433594 809.71875 C 913.984375 811.839844 913.597656 813.96875 913.4375 816.167969 C 913.230469 818.339844 912.980469 820.5 913.011719 822.691406 L 913.148438 825.988281 C 913.160156 827.082031 913.476562 828.199219 915.210938 829.28125 Z M 616.878906 599.75 C 615.667969 596.890625 614.53125 593.996094 613.476562 591.066406 C 612.421875 588.140625 611.207031 585.300781 608.847656 582.644531 C 607.960938 586.117188 608.558594 589.316406 609.421875 592.382812 C 610.300781 595.449219 611.265625 598.484375 612.3125 601.5 C 614.332031 607.546875 616.851562 613.417969 619.597656 619.183594 C 625.164062 630.683594 631.855469 641.667969 639.660156 651.851562 C 647.40625 662.070312 656.335938 671.519531 666.492188 679.554688 C 676.597656 687.628906 687.945312 694.230469 699.964844 699.175781 L 700.082031 699.226562 C 701.089844 699.644531 702.273438 699.644531 703.328125 699.128906 C 714.359375 693.769531 723.539062 686.980469 732.199219 679.164062 C 740.800781 671.417969 748.488281 662.746094 755.417969 653.566406 C 762.277344 644.324219 768.398438 634.558594 773.457031 624.273438 C 776.097656 619.195312 778.246094 613.878906 780.367188 608.582031 C 781.441406 605.941406 782.347656 603.234375 783.34375 600.566406 C 784.28125 597.878906 784.847656 595.039062 784.199219 591.8125 C 781.570312 593.863281 780.226562 596.335938 779.113281 598.894531 C 777.929688 601.433594 776.832031 604 775.578125 606.5 C 773.140625 611.519531 770.519531 616.425781 767.78125 621.265625 C 762.335938 630.953125 756.183594 640.203125 749.363281 648.894531 C 742.457031 657.527344 734.878906 665.601562 726.535156 672.761719 C 722.394531 676.367188 718.003906 679.652344 713.5625 682.820312 C 709.671875 685.566406 705.449219 688.207031 701.40625 690.257812 C 690.765625 685.835938 680.519531 680.339844 671.289062 673.308594 C 661.453125 666.023438 652.554688 657.410156 644.746094 647.851562 C 636.941406 638.273438 630.390625 627.679688 624.714844 616.644531 C 621.867188 611.140625 619.351562 605.464844 616.878906 599.75 Z M 651.398438 557.125 L 654.683594 558.796875 L 661.324219 561.964844 C 665.753906 564.035156 670.175781 566.066406 674.695312 567.828125 C 683.726562 571.28125 693.054688 573.773438 702.273438 574.65625 C 706.890625 575.117188 711.503906 575.097656 715.953125 574.320312 C 720.480469 573.472656 725.359375 572.21875 729.878906 570.707031 C 734.441406 569.152344 738.832031 567.140625 742.84375 564.660156 C 744.875 563.457031 746.777344 562.09375 748.628906 560.6875 C 749.523438 559.972656 750.429688 559.246094 751.246094 558.449219 C 752.042969 557.59375 752.949219 557.0625 754.941406 556.6875 C 755.875 558.558594 755.289062 560.0625 754.53125 561.148438 C 753.753906 562.261719 752.910156 563.328125 752.011719 564.324219 C 750.179688 566.273438 748.101562 567.9375 745.949219 569.441406 C 741.609375 572.398438 736.929688 574.648438 732.210938 576.6875 C 727.453125 578.800781 722.800781 580.53125 717.636719 581.984375 C 712.359375 583.410156 706.902344 583.730469 701.597656 583.398438 C 690.914062 582.722656 680.957031 579.167969 671.679688 574.898438 C 667.027344 572.738281 662.5 570.367188 658.207031 567.617188 C 656.027344 566.304688 653.976562 564.78125 651.9375 563.265625 L 648.910156 560.949219 C 647.894531 560.191406 647.046875 559.125 647.058594 556.945312 C 649.097656 556.207031 650.324219 556.515625 651.398438 557.125 " fill-opacity="1" fill-rule="nonzero"/><path fill="#e3386a" d="M 1109.132812 836.3125 C 1103.238281 837.964844 1097.644531 839.796875 1093.460938 838.375 C 1089.179688 837.089844 1085.058594 832.957031 1081.324219 828.585938 C 1079.285156 826.195312 1077.105469 823.667969 1074.484375 821.457031 C 1071.917969 819.226562 1068.902344 817.054688 1064.949219 815.941406 C 1060.984375 814.777344 1056.375 815.492188 1053 817.183594 C 1049.554688 818.847656 1046.917969 821.070312 1044.488281 823.277344 C 1043.265625 824.394531 1042.148438 825.519531 1041.035156 826.675781 C 1040.199219 827.351562 1039.519531 828.046875 1038.753906 828.308594 C 1037.359375 828.945312 1035.628906 828.90625 1033.398438 827.957031 C 1031.226562 827.050781 1028.867188 825.589844 1026.609375 823.867188 C 1024.269531 822.132812 1022.675781 819.863281 1018.363281 819.214844 C 1017.558594 823.597656 1019.9375 826.015625 1021.9375 828.597656 C 1024.039062 831.15625 1026.46875 833.625 1029.8125 835.417969 C 1033 837.207031 1037.878906 838.242188 1042.148438 836.351562 C 1044.300781 835.507812 1045.871094 834.082031 1047.347656 832.746094 C 1048.382812 831.710938 1049.398438 830.65625 1050.441406 829.699219 C 1052.511719 827.78125 1054.664062 826.078125 1056.746094 825.082031 C 1058.855469 824.074219 1060.675781 823.828125 1062.660156 824.335938 C 1064.648438 824.863281 1066.820312 826.265625 1068.839844 828.039062 C 1070.910156 829.769531 1072.753906 831.890625 1074.707031 834.140625 C 1078.867188 838.902344 1083.585938 844.246094 1091.261719 846.410156 C 1095.035156 847.414062 1098.96875 847.09375 1102.253906 846.347656 C 1105.578125 845.601562 1108.546875 844.566406 1111.433594 843.53125 L 1115.722656 842.019531 C 1117.085938 841.660156 1118.292969 841.160156 1119.636719 841.003906 C 1122.265625 840.484375 1124.992188 840.472656 1127.710938 840.871094 C 1133.207031 841.789062 1138.234375 843.9375 1144.734375 845.460938 C 1138.414062 833.125 1120.582031 831.792969 1109.132812 836.3125 Z M 1023.699219 648.527344 C 1026.957031 649.113281 1030.410156 649.433594 1034.113281 648.636719 C 1037.699219 647.929688 1042.078125 645.558594 1044.109375 641.359375 C 1045.214844 639.316406 1045.484375 637.214844 1045.753906 635.246094 C 1045.863281 633.792969 1045.953125 632.328125 1046.132812 630.925781 C 1046.46875 628.117188 1046.996094 625.417969 1047.945312 623.308594 C 1048.898438 621.1875 1050.125 619.8125 1051.964844 618.914062 C 1053.828125 618.03125 1056.386719 617.691406 1059.074219 617.742188 C 1061.773438 617.710938 1064.550781 618.128906 1067.496094 618.585938 C 1073.75 619.511719 1080.808594 620.539062 1088.054688 617.214844 C 1091.589844 615.539062 1094.378906 612.753906 1096.398438 610.054688 C 1098.449219 607.335938 1100.03125 604.617188 1101.566406 601.960938 L 1103.867188 598.027344 C 1104.664062 596.871094 1105.261719 595.714844 1106.1875 594.722656 C 1107.847656 592.621094 1109.917969 590.847656 1112.257812 589.394531 C 1117.039062 586.535156 1122.253906 584.921875 1128.1875 581.867188 C 1115.386719 576.558594 1100.9375 587.085938 1095.136719 597.945312 C 1091.71875 603.023438 1088.644531 608.042969 1084.53125 609.675781 C 1080.429688 611.457031 1074.625 610.980469 1068.949219 610.0625 C 1065.84375 609.578125 1062.550781 609.046875 1059.113281 609.058594 C 1055.71875 609.027344 1052.003906 609.328125 1048.273438 611.039062 C 1044.5 612.714844 1041.453125 616.246094 1039.980469 619.710938 C 1038.4375 623.21875 1037.847656 626.621094 1037.429688 629.878906 C 1037.230469 631.511719 1037.113281 633.105469 1037.003906 634.699219 C 1036.804688 635.761719 1036.734375 636.730469 1036.324219 637.414062 C 1035.667969 638.808594 1034.324219 639.894531 1032.023438 640.621094 C 1029.785156 641.339844 1027.027344 641.746094 1024.199219 641.90625 C 1021.292969 642.105469 1018.601562 641.398438 1014.898438 643.699219 C 1017.121094 647.5625 1020.496094 647.851562 1023.699219 648.527344 Z M 177.902344 783.582031 L 182.273438 782.347656 C 183.65625 782.066406 184.882812 781.640625 186.246094 781.570312 C 188.894531 781.210938 191.621094 781.359375 194.308594 781.9375 C 199.734375 783.183594 204.625 785.640625 211.015625 787.554688 C 205.460938 774.859375 187.75 772.429688 176.042969 776.242188 C 170.058594 777.527344 164.363281 779.019531 160.269531 777.339844 C 156.078125 775.796875 152.214844 771.425781 148.761719 766.824219 C 146.871094 764.324219 144.859375 761.667969 142.371094 759.285156 C 139.941406 756.90625 137.0625 754.558594 133.191406 753.203125 C 129.308594 751.800781 124.660156 752.226562 121.195312 753.722656 C 117.648438 755.164062 114.871094 757.214844 112.324219 759.265625 C 111.039062 760.3125 109.84375 761.367188 108.660156 762.441406 C 107.78125 763.070312 107.066406 763.726562 106.289062 763.9375 C 104.855469 764.484375 103.132812 764.34375 100.964844 763.269531 C 98.851562 762.234375 96.59375 760.621094 94.433594 758.769531 C 92.203125 756.898438 90.757812 754.527344 86.496094 753.621094 C 85.421875 757.941406 87.652344 760.5 89.484375 763.199219 C 91.425781 765.878906 93.707031 768.496094 96.921875 770.5 C 99.996094 772.46875 104.804688 773.792969 109.1875 772.179688 C 111.378906 771.464844 113.039062 770.140625 114.59375 768.90625 C 115.6875 767.9375 116.761719 766.945312 117.867188 766.058594 C 120.050781 764.265625 122.300781 762.683594 124.449219 761.816406 C 126.609375 760.949219 128.441406 760.808594 130.382812 761.449219 C 132.34375 762.09375 134.425781 763.617188 136.328125 765.507812 C 138.296875 767.371094 140.011719 769.59375 141.824219 771.972656 C 145.675781 776.96875 150.054688 782.59375 157.59375 785.222656 C 161.296875 786.457031 165.238281 786.390625 168.554688 785.839844 C 171.929688 785.304688 174.945312 784.4375 177.902344 783.582031 Z M 193.40625 572.417969 C 195.414062 573.554688 197.515625 573.871094 199.46875 574.179688 C 200.929688 574.328125 202.382812 574.449219 203.789062 574.65625 C 206.585938 575.046875 209.265625 575.632812 211.355469 576.621094 C 213.464844 577.625 214.808594 578.878906 215.664062 580.730469 C 216.511719 582.613281 216.800781 585.183594 216.703125 587.859375 C 216.671875 590.570312 216.195312 593.335938 215.675781 596.273438 C 214.609375 602.507812 213.445312 609.535156 216.621094 616.855469 C 218.214844 620.429688 220.941406 623.265625 223.601562 625.339844 C 226.277344 627.449219 228.957031 629.09375 231.585938 630.683594 L 235.46875 633.066406 C 236.601562 633.882812 237.75 634.5 238.722656 635.445312 C 240.785156 637.15625 242.527344 639.269531 243.921875 641.636719 C 246.679688 646.464844 248.191406 651.722656 251.117188 657.71875 C 256.683594 645.03125 246.460938 630.367188 235.726562 624.34375 C 230.730469 620.808594 225.769531 617.640625 224.226562 613.488281 C 222.527344 609.359375 223.121094 603.550781 224.167969 597.898438 C 224.714844 594.8125 225.3125 591.523438 225.371094 588.089844 C 225.472656 584.683594 225.253906 580.980469 223.621094 577.207031 C 222.019531 573.402344 218.554688 570.277344 215.117188 568.734375 C 211.652344 567.121094 208.257812 566.464844 205.011719 565.976562 C 203.378906 565.738281 201.796875 565.585938 200.203125 565.4375 C 199.148438 565.21875 198.183594 565.128906 197.496094 564.710938 C 196.121094 564.035156 195.058594 562.660156 194.378906 560.339844 C 193.714844 558.089844 193.355469 555.332031 193.265625 552.484375 C 193.125 549.578125 193.890625 546.910156 191.671875 543.15625 C 187.757812 545.296875 187.390625 548.671875 186.652344 551.847656 C 185.988281 555.09375 185.609375 558.546875 186.324219 562.261719 C 186.953125 565.855469 189.234375 570.296875 193.40625 572.417969 Z M 1049.269531 1065.636719 C 1049.078125 1063.226562 1046.988281 1061.414062 1044.558594 1061.59375 C 1041.015625 1061.863281 957.511719 1068.535156 909.65625 1104.507812 L 909.65625 1115.539062 C 911.367188 1114.207031 912.890625 1113.050781 914.175781 1112.066406 C 959.8125 1077.167969 1044.371094 1070.40625 1045.226562 1070.347656 C 1047.636719 1070.15625 1049.445312 1068.054688 1049.269531 1065.636719 Z M 1125.140625 1238.335938 C 1123.132812 1236.984375 1120.414062 1237.519531 1119.058594 1239.523438 C 1085.855469 1288.878906 962.761719 1346.726562 961.527344 1347.304688 C 959.324219 1348.332031 958.378906 1350.949219 959.40625 1353.140625 C 960.152344 1354.730469 961.734375 1355.679688 963.378906 1355.679688 C 964.003906 1355.679688 964.632812 1355.539062 965.238281 1355.261719 C 970.386719 1352.859375 1091.78125 1295.796875 1126.335938 1244.421875 C 1127.691406 1242.410156 1127.152344 1239.691406 1125.140625 1238.335938 Z M 256.632812 1088.636719 C 201.050781 1055.671875 174.558594 1052.515625 172.777344 1052.34375 C 170.355469 1052.105469 168.234375 1053.859375 167.988281 1056.257812 C 167.738281 1058.667969 169.488281 1060.816406 171.898438 1061.078125 C 172.289062 1061.105469 194.191406 1063.875 240.136719 1089.492188 C 210.988281 1085.730469 181.007812 1088.308594 179.367188 1088.46875 C 176.957031 1088.675781 175.175781 1090.808594 175.382812 1093.226562 C 175.601562 1095.636719 177.722656 1097.410156 180.144531 1097.199219 C 180.621094 1097.160156 224.65625 1093.367188 256.632812 1101.460938 Z M 735.703125 1199.109375 C 663.277344 1219.011719 458.363281 1195.246094 456.292969 1195.003906 C 453.890625 1194.695312 451.710938 1196.449219 451.421875 1198.847656 C 451.144531 1201.257812 452.867188 1203.4375 455.277344 1203.71875 C 461.191406 1204.414062 560.242188 1215.914062 644.808594 1215.914062 C 681.566406 1215.914062 715.59375 1213.734375 738.035156 1207.5625 C 740.363281 1206.925781 741.738281 1204.503906 741.101562 1202.164062 C 740.453125 1199.835938 738.035156 1198.449219 735.703125 1199.109375 Z M 854.757812 1352.332031 C 836.996094 1339.746094 783.246094 1260.621094 767.195312 1236.664062 C 764.675781 1232.910156 765.503906 1227.792969 769.066406 1225.003906 C 785.613281 1212.082031 806.679688 1195.644531 827.746094 1179.203125 L 813.492188 1179.203125 C 795.449219 1193.273438 777.886719 1206.984375 763.660156 1218.085938 C 756.492188 1223.691406 754.839844 1233.996094 759.898438 1241.542969 C 780.746094 1272.648438 831.222656 1346.410156 849.691406 1359.5 C 850.457031 1360.039062 851.34375 1360.296875 852.21875 1360.296875 C 853.59375 1360.296875 854.949219 1359.660156 855.804688 1358.457031 C 857.207031 1356.476562 856.738281 1353.738281 854.757812 1352.332031 Z M 413.898438 1231.535156 L 343.730469 1344.335938 C 343.132812 1345.292969 342.195312 1345.980469 341.121094 1346.257812 C 340.125 1346.527344 328.914062 1349.355469 310.535156 1349.355469 C 287.9375 1349.355469 254.503906 1345.085938 215.835938 1326.515625 C 213.65625 1325.46875 212.730469 1322.851562 213.773438 1320.671875 C 214.828125 1318.488281 217.449219 1317.5625 219.628906 1318.609375 C 279.980469 1347.582031 327.917969 1340.035156 337.246094 1338.132812 L 406.453125 1226.90625 C 409.757812 1221.589844 408.730469 1214.730469 404.023438 1210.578125 C 391.199219 1199.265625 378.972656 1188.863281 367.273438 1179.203125 L 381.023438 1179.203125 C 390.292969 1186.980469 399.878906 1195.234375 409.828125 1203.996094 C 417.761719 1210.996094 419.484375 1222.585938 413.898438 1231.535156 " fill-opacity="1" fill-rule="nonzero"/></svg>